<svg width="8" height="8" viewBox="0 0 8 8" fill="none" xmlns="http://www.w3.org/2000/svg">
<path opacity="0.4" d="M4.00178 0C1.79305 -8.72785e-07 0.00197112 1.7899 7.79939e-06 3.99914C-0.00126702 4.64332 0.153753 5.27819 0.451764 5.84927C0.480221 5.90264 0.505121 5.95601 0.533578 6.00582C0.597386 6.1288 0.610167 6.27197 0.569149 6.40431C0.455024 6.70882 0.359983 7.02015 0.284578 7.33649C0.284578 7.49304 0.330821 7.58555 0.498006 7.58555C0.801829 7.51736 1.10119 7.43063 1.3944 7.32582C1.5218 7.29256 1.65653 7.30129 1.77857 7.35072C1.88885 7.40765 1.98845 7.48948 2.09872 7.53929H2.13429C3.37445 8.19222 4.86573 8.14865 6.06567 7.42444C7.26562 6.70023 7.99936 5.40092 8 3.99914C7.99804 1.79129 6.20912 0.00196166 4.00178 0Z" fill="#4B41F1"/>
<path d="M2.10439 4.6138C1.82776 4.6138 1.60352 4.38955 1.60352 4.11293C1.60352 3.83631 1.82776 3.61206 2.10439 3.61206C2.38101 3.61206 2.60525 3.83631 2.60525 4.11293C2.60525 4.38955 2.38101 4.6138 2.10439 4.6138Z" fill="#4B41F1"/>
<path d="M3.91299 4.61381C3.77987 4.61475 3.65193 4.56228 3.55779 4.46814C3.46366 4.37401 3.41119 4.24607 3.41212 4.11294C3.41212 3.91036 3.53415 3.72773 3.72132 3.6502C3.90848 3.57268 4.12391 3.61553 4.26716 3.75878C4.41041 3.90202 4.45326 4.11746 4.37573 4.30462C4.29821 4.49178 4.11557 4.61381 3.91299 4.61381Z" fill="#4B41F1"/>
<path d="M5.71828 4.6138C5.44165 4.6138 5.21741 4.38955 5.21741 4.11293C5.21741 3.83631 5.44165 3.61206 5.71828 3.61206C5.9949 3.61206 6.21915 3.83631 6.21915 4.11293C6.21915 4.38955 5.9949 4.6138 5.71828 4.6138Z" fill="#4B41F1"/>
</svg>
