<svg width="8" height="8" viewBox="0 0 8 8" fill="none" xmlns="http://www.w3.org/2000/svg">
<path opacity="0.4" d="M3.91034 7.93156C2.99712 7.33781 2.1482 6.6377 1.37911 5.84404C0.836153 5.27737 0.421495 4.58546 0.166816 3.82116C-0.288237 2.33062 0.241473 0.627149 1.72039 0.12143C2.501 -0.136619 3.34997 0.0217913 4.00277 0.547299C4.65581 0.022379 5.5045 -0.135979 6.28514 0.12143C7.76407 0.627149 8.29733 2.33062 7.84228 3.82116C7.58967 4.58474 7.17748 5.27659 6.6371 5.84404C5.8673 6.63683 5.01848 7.33686 4.10587 7.93156L4.00632 8L3.91034 7.93156Z" fill="#FF009B"/>
<path d="M4.00436 8.00008L3.91039 7.93163C2.99605 7.33794 2.14595 6.63784 1.37561 5.84412C0.830081 5.27824 0.412954 4.58626 0.156208 3.82124C-0.29529 2.3307 0.23442 0.627227 1.71334 0.121508C2.49395 -0.136541 3.35411 0.0219902 4.00436 0.551898V8.00008Z" fill="#FF009B"/>
<path d="M6.49215 2.94707C6.4118 2.94162 6.33697 2.89935 6.2852 2.83016C6.23343 2.76097 6.20925 2.67093 6.21834 2.58115C6.22704 2.28542 6.06718 2.01624 5.82067 1.91151C5.66435 1.86659 5.56968 1.68839 5.60879 1.51265C5.64589 1.33974 5.79971 1.23222 5.95431 1.27114C5.97383 1.27455 5.99262 1.282 6.00972 1.2931C6.50401 1.49332 6.82403 2.0322 6.79856 2.6214C6.79775 2.7107 6.76467 2.79581 6.70691 2.85721C6.64914 2.91861 6.57163 2.95104 6.49215 2.94707Z" fill="#FF009B"/>
</svg>
