<svg width="9" height="10" viewBox="0 0 9 10" fill="none" xmlns="http://www.w3.org/2000/svg">
<path opacity="0.4" d="M4.50004 5.55556C6.05336 5.55556 7.31258 4.3119 7.31258 2.77778C7.31258 1.24365 6.05336 0 4.50004 0C2.94672 0 1.6875 1.24365 1.6875 2.77778C1.6875 4.3119 2.94672 5.55556 4.50004 5.55556Z" fill="#F16641"/>
<path d="M8.99512 8.33798C8.99765 8.29844 8.99765 8.2588 8.99512 8.21926C8.98399 8.07314 8.94253 7.93046 8.87306 7.79917C8.59965 7.26492 7.83313 7.02291 7.19355 6.88593C6.73723 6.79093 6.27359 6.72986 5.80697 6.70328L5.31874 6.66675H5.09903H4.82562H4.1714H3.89799H3.67828L3.19005 6.70328C2.72343 6.72986 2.25979 6.79093 1.80348 6.88593C1.16389 7.00465 0.39737 7.25122 0.123961 7.79917C0.0544916 7.93046 0.0130335 8.07314 0.00190288 8.21926C-0.000634295 8.2588 -0.000634295 8.29844 0.00190288 8.33798C-0.000439647 8.37752 -0.000439647 8.41716 0.00190288 8.4567C0.0151828 8.60157 0.0582873 8.74267 0.128843 8.87223C0.402252 9.40647 1.16878 9.64848 1.80836 9.78547C2.26552 9.87602 2.72881 9.93704 3.19493 9.96812L3.68316 10.0001H3.80034H3.90287H5.10392H5.20645H5.32362L5.81185 9.96812C6.27798 9.93704 6.74126 9.87602 7.19843 9.78547C7.83801 9.66218 8.60453 9.42017 8.87794 8.87223C8.94521 8.73856 8.98654 8.59477 9 8.44757C9.00062 8.41098 8.99899 8.37439 8.99512 8.33798Z" fill="#F16641"/>
</svg>
