<svg width="52" height="52" viewBox="0 0 52 52" fill="none" xmlns="http://www.w3.org/2000/svg">
<g id="visa (1)">
<g id="Group">
<path id="Shape" fill-rule="evenodd" clip-rule="evenodd" d="M34.9114 19.8058L34.4021 22.8163C32.8749 21.9557 29.3993 21.7521 29.3989 23.3372C29.3989 23.9669 30.1853 24.4 31.1331 24.922C32.5706 25.7136 34.3794 26.7097 34.3794 28.9063C34.3794 32.4163 30.7054 33.706 28.27 33.706C25.8353 33.706 24.2418 32.9143 24.2418 32.9143L24.7723 29.7666C26.2335 30.9662 30.661 31.3071 30.661 29.4047C30.661 28.6053 29.7894 28.1339 28.7787 27.5872C27.3842 26.833 25.7249 25.9354 25.7249 23.8356C25.7249 19.9862 29.9306 19.1946 31.7016 19.1946C33.3399 19.1946 34.9114 19.8058 34.9114 19.8058ZM46.8189 33.4641H43.542L43.124 31.3817H38.5872L37.8433 33.4641H34.1231L39.4456 20.4895C39.4456 20.4895 39.7683 19.4447 41.093 19.4447H43.9618L46.8189 33.4641ZM15.4718 19.4451L12.0695 29.0875L11.6669 27.0111L11.6673 27.0118L10.4665 20.7073C10.4665 20.7073 10.3213 19.4451 8.77355 19.4451H3.14889L3.08289 19.6825C3.08289 19.6825 4.80292 20.0485 6.81592 21.2848L9.91645 33.4645H13.6348L19.3127 19.4451H15.4718ZM22.0429 33.4641H18.4741L20.7045 19.4451H24.2737L22.0429 33.4641ZM39.615 28.5051L41.4901 23.2588L42.545 28.5051H39.615Z" fill="#2566AF"/>
</g>
<path id="Path" d="M12 28L10.741 20.5013C10.741 20.5013 10.5888 19 8.96617 19H3.0692L3 19.2823C3 19.2823 5.83432 19.9639 8.55292 22.5174C11.1524 24.9581 12 28 12 28Z" fill="#E6A540"/>
</g>
</svg>
